<?xml version="1.0" encoding="utf-8"?>
<!-- Generator: Adobe Illustrator 16.0.0, SVG Export Plug-In . SVG Version: 6.00 Build 0)  -->
<!DOCTYPE svg PUBLIC "-//W3C//DTD SVG 1.1//EN" "http://www.w3.org/Graphics/SVG/1.1/DTD/svg11.dtd">
<svg version="1.1" id="Layer_1" xmlns="http://www.w3.org/2000/svg" xmlns:xlink="http://www.w3.org/1999/xlink" x="0px" y="0px"
	 width="45px" height="45px" viewBox="0 0 45 45" enable-background="new 0 0 45 45" xml:space="preserve">
<circle fill="#EF732E" cx="22.5" cy="22.5" r="22.5"/>
<path fill="none" d="M22.502,45C10.074,45,0,34.926,0,22.5C0,10.073,10.073,0,22.501,0C34.93-0.001,45,10.073,45,22.5
	C45,34.926,34.93,45,22.502,45z M22.502,42.001c10.757,0,19.512-8.748,19.512-19.501c0-10.751-8.755-19.5-19.512-19.5
	C11.743,3,2.988,11.749,2.988,22.5C2.988,33.253,11.743,42.001,22.502,42.001"/>
<circle fill="none" cx="22.5" cy="22.5" r="22.5"/>
<path fill="#FFFFFF" d="M33.047,31.217c-0.171,0.188-0.385,0.281-0.648,0.281h-2.01c-0.244,0-0.453-0.082-0.627-0.246
	c-0.174-0.162-0.264-0.361-0.271-0.598c-0.113-2.016-0.588-3.928-1.42-5.743c-0.836-1.813-1.922-3.388-3.256-4.724
	c-1.336-1.337-2.911-2.421-4.725-3.255c-1.813-0.834-3.729-1.312-5.743-1.435c-0.234-0.01-0.435-0.1-0.599-0.274
	c-0.164-0.172-0.245-0.378-0.245-0.611v-2.01c0-0.262,0.093-0.479,0.281-0.648c0.169-0.168,0.375-0.252,0.62-0.252h0.041
	c2.458,0.121,4.807,0.685,7.052,1.688c2.244,1.002,4.237,2.38,5.981,4.132c1.754,1.744,3.131,3.739,4.135,5.984
	c1.003,2.243,1.563,4.596,1.688,7.051C33.316,30.811,33.232,31.029,33.047,31.217z M25.861,31.203
	c-0.17,0.197-0.389,0.295-0.66,0.295h-1.899c-0.233,0-0.435-0.078-0.605-0.232c-0.167-0.154-0.26-0.349-0.28-0.582
	c-0.208-2.146-1.071-3.981-2.594-5.506c-1.523-1.523-3.358-2.387-5.505-2.594c-0.234-0.018-0.429-0.111-0.583-0.28
	c-0.154-0.17-0.231-0.372-0.231-0.605V19.8c0-0.272,0.099-0.491,0.296-0.66c0.158-0.16,0.36-0.241,0.604-0.241h0.07
	c1.5,0.124,2.933,0.5,4.302,1.134c1.369,0.632,2.582,1.481,3.642,2.551c1.068,1.059,1.918,2.271,2.553,3.641
	c0.631,1.371,1.01,2.805,1.131,4.303C26.119,30.79,26.039,31.016,25.861,31.203z M18.115,30.712
	c-0.525,0.524-1.163,0.786-1.914,0.786c-0.75,0-1.387-0.262-1.911-0.786c-0.525-0.524-0.788-1.163-0.788-1.913
	s0.263-1.388,0.788-1.912c0.524-0.525,1.161-0.787,1.911-0.787c0.751,0,1.388,0.262,1.914,0.787
	c0.524,0.524,0.787,1.162,0.787,1.912S18.639,30.188,18.115,30.712z"/>
</svg>
