<?xml version="1.0" encoding="utf-8"?>
<!-- Generator: Adobe Illustrator 16.0.0, SVG Export Plug-In . SVG Version: 6.00 Build 0)  -->
<!DOCTYPE svg PUBLIC "-//W3C//DTD SVG 1.1//EN" "http://www.w3.org/Graphics/SVG/1.1/DTD/svg11.dtd">
<svg version="1.1" id="Layer_1" xmlns="http://www.w3.org/2000/svg" xmlns:xlink="http://www.w3.org/1999/xlink" x="0px" y="0px"
	 width="45px" height="45px" viewBox="0 0 45 45" enable-background="new 0 0 45 45" xml:space="preserve">
<g>
	<defs>
		<ellipse id="SVGID_1_" cx="22.5" cy="22.5" rx="22.5" ry="22.415"/>
	</defs>
	<clipPath id="SVGID_2_">
		<use xlink:href="#SVGID_1_"  overflow="visible"/>
	</clipPath>
	<circle clip-path="url(#SVGID_2_)" fill="#4470B2" cx="22.5" cy="22.5" r="22.5"/>
	<g clip-path="url(#SVGID_2_)">
		<path fill="#FFFFFF" d="M17.984,30.752V18.768h-3.983v11.984H17.984L17.984,30.752z M15.994,17.133
			c1.387,0,2.253-0.92,2.253-2.071c-0.027-1.176-0.866-2.07-2.228-2.07s-2.252,0.895-2.252,2.07c0,1.15,0.862,2.071,2.199,2.071
			H15.994L15.994,17.133z"/>
		<path fill="#FFFFFF" d="M20.188,30.752h3.982v-6.691c0-0.356,0.027-0.715,0.133-0.973c0.288-0.714,0.943-1.457,2.041-1.457
			c1.443,0,2.021,1.1,2.021,2.71v6.41h3.982v-6.869c0-3.681-1.966-5.395-4.589-5.395c-2.147,0-3.092,1.202-3.616,2.02h0.026v-1.739
			h-3.982C20.241,19.892,20.188,30.752,20.188,30.752L20.188,30.752z"/>
	</g>
</g>
</svg>
